PathFileType	4	(X/Y/Z)	C:/Users/beibeiliu/ov580/test_trc/User3\sequence.8_training_dense_left.trc
DataRate	CameraRate	NumFrames	NumMarkers	Units	OrigDataRate	OrigDataStartFrame	OrigNumFrames
120	120	15	19	mm	120	1	161
Frame#	Time	ThumbCMC			ThumbMCP			ThumbIP			ThumbTip			IndexMCP			IndexPIP			IndexTip			MiddleMCP			MiddlePIP			MiddleTip			RingMCP			RingPIP			RingTip			PinkyMCP			PinkyPIP			PinkyTip			BackHand1			BackHand2			BackHand3	
		X0	Y0	Z0	X1	Y1	Z1	X2	Y2	Z2	X3	Y3	Z3	X4	Y4	Z4	X5	Y5	Z5	X6	Y6	Z6	X7	Y7	Z7	X8	Y8	Z8	X9	Y9	Z9	X10	Y10	Z10	X11	Y11	Z11	X12	Y12	Z12	X13	Y13	Z13	X14	Y14	Z14	X15	Y15	Z15	X16	Y16	Z16	X17	Y17	Z17	X18	Y18	Z18	
0	0	-112.697	-71.6599	30.6213	-98.0477	-90.5733	9.77738	-85.2874	-106.897	-13.8958	-92.8278	-122.304	-39.3976	-126.787	-53.6554	-45.7759	-117.768	-62.9718	-74.1359	-116.5	-91.9434	-93.2965	-148.237	-47.6506	-52.447	-147.093	-57.818	-84.1397	-149.817	-92.3862	-98.0637	-168.755	-53.0206	-47.7065	-172.441	-63.8118	-73.1936	-173.942	-95.6739	-81.2495	-195.748	-62.7917	-31.9403	-201.152	-74.6826	-52.0004	-193.901	-101.768	-61.7561	-170.598	-41.8779	2.55448	-173.112	-40.6275	37.4213	-139.423	-42.0584	18.6657	
1	0.00833333	-114.667	-71.9785	27.8798	-97.1282	-89.7971	8.18891	-90.4169	-105.214	-14.6553	-93.6426	-121.994	-38.2572	-127.533	-53.7582	-47.9023	-119.669	-65.0642	-78.5698	-119.011	-93.0766	-93.7608	-147.834	-47.6895	-55.5049	-146.465	-56.1668	-82.931	-150.163	-92.1339	-99.175	-173.623	-53.0972	-46.5482	-171.704	-65.3839	-73.5688	-172.766	-101.51	-81.7313	-193.199	-64.2863	-29.0679	-200.96	-80.541	-55.5151	-196.953	-104.53	-61.5947	-173.499	-43.4868	5.48698	-172.652	-39.8942	33.8814	-139.181	-43.2177	16.2115	
2	0.0166667	-115.725	-71.9789	29.1341	-99.7009	-88.8111	10.1053	-87.7572	-106.68	-17.9528	-93.9799	-119.746	-34.5406	-122.963	-53.8606	-51.3496	-120.731	-63.0581	-77.1527	-115.508	-88.839	-92.5571	-151.373	-46.4893	-52.7209	-147.998	-55.8374	-84.0261	-148.079	-88.8812	-100.253	-169.409	-52.8402	-44.8515	-173.012	-68.298	-76.1737	-174.859	-99.5813	-81.6472	-195.606	-62.7026	-30.8597	-202.151	-79.0332	-54.2313	-195.382	-103.992	-59.4642	-174.733	-42.1612	4.4885	-172.649	-41.1041	33.1852	-141.406	-43.0064	18.4951	
3	0.025	-112.799	-71.3586	24.579	-100.827	-88.1643	6.78224	-89.7999	-104.605	-16.431	-92.8626	-119.128	-34.1611	-126.915	-52.9357	-51.0955	-117.679	-64.3762	-79.5836	-121.827	-85.9126	-93.0047	-150.261	-46.009	-51.0649	-149.58	-55.8157	-85.5068	-151.944	-87.8419	-100.452	-170.031	-51.3545	-47.149	-174.97	-65.5658	-75.3959	-174.236	-92.8688	-82.8035	-191.758	-62.5814	-29.6011	-199.118	-75.442	-55.4655	-196.534	-103.177	-61.4238	-173.888	-42.7773	1.83395	-177.219	-40.1794	32.3455	-140.707	-41.9542	15.6131	
4	0.0333333	-118.871	-71.3132	28.6936	-100.808	-88.6057	5.73453	-88.1648	-104.909	-14.3823	-92.3255	-120.23	-36.3225	-126.011	-52.7669	-46.7765	-120.777	-61.0409	-75.5085	-118.364	-86.3328	-92.4534	-149.11	-44.7234	-55.5973	-148.261	-58.1443	-85.8988	-150.289	-86.7493	-99.9751	-176.371	-52.4172	-45.5293	-175.229	-66.2106	-75.9502	-176.669	-97.5089	-80.8659	-198.886	-63.3548	-30.6184	-199.614	-74.7965	-53.5315	-197.429	-103.948	-60.3328	-176.167	-41.8062	3.29079	-173.103	-40.3248	31.6633	-143.108	-43.2811	16.3088	
5	0.0416667	-120.454	-72.0164	25.8888	-103.977	-87.7492	7.40649	-92.3403	-103.276	-17.5057	-94.0615	-119.213	-37.1034	-128.012	-53.2138	-44.0332	-126.154	-63.3617	-77.1202	-121.279	-85.9677	-90.9282	-156.042	-46.3237	-53.4074	-151.47	-55.8266	-82.8939	-155.565	-87.6439	-98.5892	-179.458	-53.2638	-44.1667	-180.6	-67.1511	-73.8686	-180.556	-95.4041	-80.0922	-199.123	-63.641	-29.0168	-203.029	-74.5919	-51.1382	-199.966	-104.096	-57.4093	-175.607	-43.731	8.26277	-178.349	-42.849	35.2592	-142.625	-44.3921	19.1933	
6	0.05	-119.881	-71.2031	27.1526	-103.288	-86.9659	6.96822	-95.376	-101.571	-13.2836	-96.957	-114.713	-35.7861	-133.955	-50.9871	-48.2851	-125.013	-59.0184	-72.4908	-125.668	-83.1909	-90.6166	-159.289	-45.0106	-52.8049	-153.539	-52.8222	-79.9921	-155.484	-87.3244	-99.5527	-177.027	-52.5888	-40.7725	-181.52	-63.4795	-71.0586	-178.061	-96.8329	-81.0987	-203.583	-64.0215	-27.9929	-206.232	-78.8851	-53.1097	-201.078	-104.345	-58.5044	-176.925	-45.8221	9.90229	-182.065	-43.4095	38.4369	-148.178	-42.4992	21.9477	
7	0.0583333	-121.541	-68.824	32.279	-104.865	-83.9757	10.0039	-91.918	-97.3252	-17.6226	-94.07	-111.355	-38.0033	-134.482	-46.8922	-46.0458	-125.726	-57.7045	-75.4571	-127.315	-78.2232	-91.2568	-159.181	-42.2595	-51.5662	-156.159	-50.3279	-79.6997	-153.058	-86.7068	-98.9557	-178.551	-49.5902	-41.2765	-185.346	-61.3589	-70.471	-182.107	-90.5042	-80.2842	-204.845	-61.0385	-29.865	-207.023	-73.2594	-51.0522	-199.544	-103.312	-59.5397	-184.135	-44.1818	11.0702	-183.764	-43.0598	37.6381	-147.079	-40.0489	22.164	
8	0.0666667	-122.455	-67.194	28.5766	-106.393	-81.2547	6.17946	-96.6263	-93.5342	-17.0324	-98.2723	-107.072	-41.6038	-135.528	-44.1864	-44.2271	-127.744	-54.2337	-76.9793	-123.07	-79.849	-92.5432	-159.92	-39.6373	-48.5037	-159.8	-49.7794	-82.9991	-156.09	-81.6425	-98.312	-181.669	-46.7399	-43.219	-185.714	-58.1052	-70.998	-178.721	-89.6871	-81.2796	-205.094	-60.0374	-25.7269	-207.735	-70.1278	-51.0194	-201.698	-99.2689	-61.0499	-182.443	-42.7052	8.99085	-185.221	-42.6642	40.2951	-149.936	-40.3639	22.6517	
9	0.075	-125.083	-65.2917	29.2167	-103.285	-80.1327	6.11609	-92.2328	-92.1539	-16.0151	-98.9843	-105.156	-38.1925	-134.621	-42.3585	-46.038	-130.62	-48.8748	-74.26	-126.914	-74.075	-93.4052	-158.569	-36.7037	-51.2985	-155.802	-45.449	-82.2768	-155.627	-77.8212	-98.4954	-178.724	-43.7227	-44.8404	-187.053	-54.1605	-71.0595	-181.301	-85.8164	-81.6967	-200.865	-57.5634	-26.2707	-208.672	-70.0975	-53.1444	-201.231	-95.0081	-61.528	-185.454	-40.0287	9.13789	-185.154	-39.2722	35.7097	-149.167	-37.9255	22.7414	
10	0.0833333	-122.669	-63.7819	27.9651	-105.414	-78.3511	7.27169	-93.8533	-91.2714	-17.2733	-95.9795	-104.479	-41.0096	-136.572	-41.6983	-46.5343	-127.297	-48.7786	-73.6029	-126.991	-74.4287	-93.4173	-159.501	-35.4711	-52.182	-156.341	-43.9481	-80.2824	-158.987	-75.7429	-98.2555	-184.965	-44.4858	-42.3821	-186.28	-53.4533	-70.5805	-180.558	-85.6604	-82.9089	-200.972	-56.6948	-26.0409	-208.527	-67.5251	-52.8345	-202.011	-92.9223	-61.4555	-185.089	-39.2506	10.0842	-184.36	-39.5245	35.2639	-151.171	-36.2294	22.2841	
11	0.0916667	-125.874	-64.8039	31.9809	-102.207	-78.1776	10.6508	-91.1505	-90.3	-14.3079	-96.4207	-102.529	-36.4055	-134.703	-41.3569	-45.0834	-126.753	-49.268	-73.9519	-125.762	-69.3515	-90.9914	-159.716	-36.3007	-47.5855	-158.683	-44.1441	-80.7197	-157.11	-78.1397	-99.1523	-183.253	-45.3931	-38.9254	-182.771	-53.1115	-68.6615	-183.04	-82.4802	-82.0061	-200.265	-55.7617	-29.445	-206.645	-65.8318	-49.5878	-203.318	-95.1253	-61.4573	-184.709	-38.0415	9.70336	-186.448	-39.0127	38.8417	-147.993	-38.2035	21.826	
12	0.1	-125.289	-62.7701	28.6589	-107.562	-77.508	9.72591	-90.5314	-90.3205	-13.408	-91.7963	-102.385	-36.7359	-133.9	-40.506	-44.9869	-125.115	-47.5109	-72.1064	-124.278	-66.7555	-90.0743	-157.865	-35.5766	-48.2949	-158.273	-44.4827	-80.5193	-157.99	-73.0562	-98.0469	-184.767	-44.3936	-39.2438	-181.691	-54.3897	-70.1413	-181.712	-83.0115	-81.6708	-203.064	-57.3369	-23.5	-208.248	-65.5956	-47.7298	-201.711	-93.4822	-62.7352	-180.124	-39.8104	9.0886	-183.3	-39.7275	41.9776	-149.87	-38.3351	25.1533	
13	0.108333	-124.499	-63.9462	33.4454	-103.685	-76.9707	9.82125	-91.096	-88.5275	-14.7571	-93.8027	-102.125	-37.4083	-139.287	-40.1257	-41.1451	-129.45	-44.1182	-69.6482	-126.132	-68.0385	-92.2208	-160.437	-33.6743	-48.9185	-157.356	-42.7547	-79.32	-156.382	-70.6894	-97.7938	-182.75	-42.6853	-40.3161	-184.707	-50.7763	-66.2852	-182.145	-79.0097	-81.3079	-201.418	-54.1377	-27.0076	-208.712	-67.5097	-50.6483	-202.01	-90.2078	-62.2915	-181.944	-39.5281	10.1498	-184.066	-37.3968	40.4864	-150.589	-35.5245	28.1163	
14	0.116667	-123.555	-61.5424	33.1977	-105.758	-75.2185	13.2195	-92.2001	-87.6264	-12.0703	-96.1105	-99.5282	-35.35	-140.134	-38.2815	-43.5919	-132.325	-44.0077	-70.6875	-128.08	-66.3621	-90.9655	-160.487	-33.5623	-45.0589	-157.756	-40.1793	-77.3468	-159.548	-73.1104	-99.6223	-183.376	-41.2882	-38.5676	-186.036	-49.9147	-67.4865	-182.784	-75.7724	-80.7563	-206.857	-53.5302	-25.6459	-211.796	-62.6643	-47.0779	-205.495	-90.9503	-63.1076	-186.863	-37.3274	14.0431	-184.089	-38.7914	40.4998	-152.799	-34.9703	25.908	
